<svg xmlns="http://www.w3.org/2000/svg" width="18.862" height="18.863" viewBox="0 0 18.862 18.863"><defs><style>.a{fill:#fff;}</style></defs><g transform="translate(0 0)"><path class="a" d="M15.16,18.863a8.1,8.1,0,0,1-2.775-.59,20.82,20.82,0,0,1-7-4.794,20.835,20.835,0,0,1-4.8-7C-.195,4.4-.2,2.693.584,1.913.7,1.8.811,1.68.929,1.556A3.7,3.7,0,0,1,3.513,0,3.093,3.093,0,0,1,5.691,1.4c2.156,2.681,1.184,3.637.059,4.744l-.2.2c-.184.184-.532,1.036,2.7,4.27a17.935,17.935,0,0,0,2.675,2.3c.453.294,1.263.74,1.6.407l.2-.2c1.106-1.122,2.062-2.091,4.741.063a3.091,3.091,0,0,1,1.395,2.178c.044,1.067-.806,1.874-1.556,2.585-.124.118-.244.232-.357.344A2.471,2.471,0,0,1,15.16,18.863ZM3.437.634c-.758,0-1.443.721-2.049,1.358-.122.128-.24.253-.356.369-.582.581-.523,2.108.15,3.892a20.2,20.2,0,0,0,4.651,6.778A20.182,20.182,0,0,0,12.61,17.68c1.783.674,3.311.731,3.891.15.116-.116.24-.234.369-.355.652-.619,1.391-1.321,1.358-2.1a2.565,2.565,0,0,0-1.158-1.71c-2.233-1.8-2.857-1.162-3.892-.112l-.2.2c-.495.5-1.3.386-2.39-.324a18.526,18.526,0,0,1-2.778-2.38C5.122,8.372,4.263,6.729,5.1,5.887l.2-.2C6.358,4.652,6.993,4.027,5.2,1.793A2.573,2.573,0,0,0,3.487.635Z" transform="translate(0 0)"/></g></svg>