<svg xmlns="http://www.w3.org/2000/svg" width="81.594" height="120.5" viewBox="0 0 81.594 120.5"><defs><style>.a,.b,.e{fill:none;}.b{stroke:#00a651;stroke-width:4px;}.c,.d{stroke:none;}.d{fill:#00a651;}</style></defs><g transform="translate(-500 -1297)"><g class="a" transform="translate(500 1297)"><path class="c" d="M8,119a8,8,0,0,1-8-8V55A20.007,20.007,0,0,1,13,36.259V3a3,3,0,0,1,3-3H27a3,3,0,0,1,3,3V36.259A20.006,20.006,0,0,1,43,55v57a7,7,0,0,1-7,7Z"/><path class="d" d="M 36 114.9998016357422 C 37.65431976318359 114.9998016357422 39.00020217895508 113.653923034668 39.00020217895508 111.9996032714844 L 39.00020217895508 54.99990081787109 C 39.00020217895508 51.6739616394043 37.99058151245117 48.48652267456055 36.08050155639648 45.78216171264648 C 34.20910263061523 43.13260269165039 31.62234115600586 41.13528060913086 28.59986114501953 40.00612258911133 L 25.99970054626465 39.03474044799805 L 25.99970054626465 36.25905990600586 L 25.99970054626465 4.000000953674316 L 16.99960136413574 4.000000953674316 L 16.99960136413574 36.2593994140625 L 16.99960136413574 39.0348014831543 L 14.39980125427246 40.00632095336914 C 11.37756061553955 41.13571929931641 8.790961265563965 43.13315963745117 6.919641017913818 45.78272247314453 C 5.00960111618042 48.48707962036133 4.000000953674316 51.67433929443359 4.000000953674316 54.99990081787109 L 4.000000953674316 110.9997024536133 C 4.000000953674316 113.2053604125977 5.794441223144531 114.9998016357422 8.000101089477539 114.9998016357422 L 36 114.9998016357422 M 36 118.9998016357422 L 8.000101089477539 118.9998016357422 C 3.582000970840454 118.9998016357422 1.089477564164554e-06 115.418701171875 1.089477564164554e-06 110.9997024536133 L 1.089477564164554e-06 54.99990081787109 C 1.089477564164554e-06 46.41696166992188 5.406481266021729 39.09690093994141 12.99960136413574 36.2593994140625 L 12.99960136413574 2.999700784683228 C 12.99960136413574 1.342800855636597 14.34330081939697 8.178710686479462e-07 16.00020027160645 8.178710686479462e-07 L 27.00000190734863 8.178710686479462e-07 C 28.65690040588379 8.178710686479462e-07 29.99970054626465 1.342800855636597 29.99970054626465 2.999700784683228 L 29.99970054626465 36.25905990600586 C 37.5937614440918 39.0960807800293 43.00020217895508 46.41630172729492 43.00020217895508 54.99990081787109 L 43.00020217895508 111.9996032714844 C 43.00020217895508 115.8659973144531 39.86640167236328 118.9998016357422 36 118.9998016357422 Z"/></g><g class="b" transform="translate(501 1363)"><rect class="c" width="29" height="34"/><rect class="e" x="2" y="2" width="25" height="30"/></g><line class="b" x2="14" transform="translate(514.5 1326.5)"/><g class="a" transform="translate(547.46 1357.333)"><path class="c" d="M17.067,42.493a12.33,12.33,0,0,1-6.643-2A18.53,18.53,0,0,1,5,35.046a28.345,28.345,0,0,1-3.658-8.082A36.232,36.232,0,0,1,0,17.067,33.248,33.248,0,0,1,4.416,0h25.3a33.247,33.247,0,0,1,4.416,17.067,36.232,36.232,0,0,1-1.341,9.9,28.345,28.345,0,0,1-3.658,8.082,18.53,18.53,0,0,1-5.425,5.449A12.33,12.33,0,0,1,17.067,42.493Z"/><path class="d" d="M 17.06668090820313 38.49292373657227 C 18.6041202545166 38.49292373657227 20.12170028686523 38.02787017822266 21.57728004455566 37.11067199707031 C 23.1340217590332 36.12973022460938 24.55926132202148 34.68501281738281 25.81341171264648 32.81663131713867 C 27.14623069763184 30.83102226257324 28.1995906829834 28.49438095092773 28.9442310333252 25.87159156799316 C 29.73328018188477 23.09247207641602 30.13336181640625 20.13027191162109 30.13336181640625 17.06726264953613 C 30.13336181640625 12.31076335906982 29.15155410766602 7.75478982925415 27.34162139892578 4.000001907348633 L 6.791737079620361 4.000001907348633 C 4.981810092926025 7.754783630371094 4.000000953674316 12.31076335906982 4.000000953674316 17.06726264953613 C 4.000000953674316 20.1302318572998 4.400080680847168 23.09244155883789 5.189130783081055 25.87161254882813 C 5.933771133422852 28.49439239501953 6.987131118774414 30.83102226257324 8.319960594177246 32.81662368774414 C 9.574100494384766 34.68501281738281 10.99934101104736 36.12973022460938 12.55611133575439 37.11068344116211 C 14.01165103912354 38.02787017822266 15.52923107147217 38.49292373657227 17.06668090820313 38.49292373657227 M 17.06668090820313 42.49292373657227 C 14.76273059844971 42.49292373657227 12.52768135070801 41.82067108154297 10.42364120483398 40.49485015869141 C 8.391361236572266 39.21427154541016 6.56618070602417 37.3809928894043 4.998790740966797 35.04594039916992 C 3.431401014328003 32.71089172363281 2.20081090927124 29.99177169799805 1.341210961341858 26.96409225463867 C 0.4512509107589722 23.82949256896973 9.08203105609573e-07 20.49972152709961 9.08203105609573e-07 17.06726264953613 C 9.08203105609573e-07 10.74313163757324 1.568320870399475 4.681861877441406 4.416080951690674 1.868286176431866e-06 L 29.71728134155273 1.868286176431866e-06 C 32.56525039672852 4.682211875915527 34.13336181640625 10.7433614730835 34.13336181640625 17.06726264953613 C 34.13336181640625 20.49972152709961 33.68212127685547 23.82949256896973 32.79214096069336 26.96409225463867 C 31.93255043029785 29.99177169799805 30.70196151733398 32.71089172363281 29.13458061218262 35.04594039916992 C 27.56718063354492 37.3809928894043 25.74200057983398 39.21427154541016 23.70972061157227 40.49485015869141 C 21.60567092895508 41.82067108154297 19.37063026428223 42.49292373657227 17.06668090820313 42.49292373657227 Z"/></g><line class="b" x2="30.651" transform="translate(549.201 1373.704)"/><line class="b" x2="22.291" transform="translate(553.381 1415.5)"/><line class="b" y2="17.415" transform="translate(564.527 1398.085)"/></g></svg>