<svg xmlns="http://www.w3.org/2000/svg" width="95.468" height="85.5" viewBox="0 0 95.468 85.5"><defs><style>.a,.b{fill:none;}.b{stroke:#00a651;stroke-width:4px;}.c,.d{stroke:none;}.d{fill:#00a651;}</style></defs><g transform="translate(-128 -1329)"><g class="a" transform="translate(112 1298)"><path class="c" d="M40.5,92a17.7,17.7,0,0,1-9.536-2.868,26.6,26.6,0,0,1-7.788-7.822,40.69,40.69,0,0,1-5.251-11.6A52.012,52.012,0,0,1,16,55.5c0-9.079,2.251-17.78,6.339-24.5H58.66C62.749,37.721,65,46.422,65,55.5a52.012,52.012,0,0,1-1.925,14.207,40.69,40.69,0,0,1-5.251,11.6,26.6,26.6,0,0,1-7.788,7.822A17.7,17.7,0,0,1,40.5,92Z"/><path class="d" d="M 40.5 87.99980926513672 C 43.0408821105957 87.99980926513672 45.53189468383789 87.24195861816406 47.90385818481445 85.74732971191406 C 50.34574127197266 84.20863342285156 52.56591796875 81.96544647216797 54.50269317626953 79.080078125 C 56.5181770324707 76.07745361328125 58.10749435424805 72.55654144287109 59.22651672363281 68.61508941650391 C 60.40317535400391 64.47071075439453 60.99980163574219 60.05826568603516 60.99980163574219 55.50030136108398 C 60.99980163574219 47.99581527709961 59.35049438476563 40.80786514282227 56.32498168945313 34.99960708618164 L 24.67502975463867 34.99960708618164 C 21.64950752258301 40.80784606933594 20.00020027160645 47.99579238891602 20.00020027160645 55.50030136108398 C 20.00020027160645 60.05826568603516 20.59682273864746 64.47071075439453 21.77348327636719 68.6151123046875 C 22.89250564575195 72.55654144287109 24.4818229675293 76.07745361328125 26.49729347229004 79.08007049560547 C 28.4340934753418 81.9654541015625 30.65427017211914 84.20864105224609 33.09616470336914 85.74733734130859 C 35.46810531616211 87.24195861816406 37.9591178894043 87.99980926513672 40.5 87.99980926513672 M 40.5 91.99980926513672 C 37.19260025024414 91.99980926513672 33.9841194152832 91.03475952148438 30.96369361877441 89.13150024414063 C 28.0462818145752 87.29317474365234 25.42617607116699 84.66143035888672 23.1761302947998 81.30938720703125 C 20.92609405517578 77.95732879638672 19.15954208374023 74.05392456054688 17.92556381225586 69.70758819580078 C 16.64797592163086 65.20774078369141 16.00020027160645 60.42772674560547 16.00020027160645 55.50030136108398 C 16.00020027160645 46.42177200317383 18.25157737731934 37.72059631347656 22.33963584899902 30.99960899353027 L 58.66037750244141 30.99960899353027 C 62.74871826171875 37.72109222412109 64.99980163574219 46.42210388183594 64.99980163574219 55.50030136108398 C 64.99980163574219 60.42772674560547 64.35202026367188 65.20774078369141 63.07443618774414 69.70758819580078 C 61.84045791625977 74.05392456054688 60.07390594482422 77.95732879638672 57.82387161254883 81.30938720703125 C 55.57383346557617 84.66143035888672 52.95371627807617 87.29317474365234 50.03630447387695 89.13150024414063 C 47.0158805847168 91.03475952148438 43.80739974975586 91.99980926513672 40.5 91.99980926513672 Z"/></g><line class="b" x2="44" transform="translate(130.5 1352.5)"/><line class="b" x2="32" transform="translate(136.5 1412.5)"/><line class="b" y2="25" transform="translate(152.5 1387.5)"/><g class="a" transform="translate(185.579 1346.933)"><path class="c" d="M18.944,47.168a13.687,13.687,0,0,1-7.374-2.218A20.569,20.569,0,0,1,5.549,38.9a31.464,31.464,0,0,1-4.06-8.971A40.218,40.218,0,0,1,0,18.945,36.906,36.906,0,0,1,4.9,0H32.987a36.906,36.906,0,0,1,4.9,18.945A40.218,40.218,0,0,1,36.4,29.931,31.464,31.464,0,0,1,32.34,38.9a20.569,20.569,0,0,1-6.022,6.048A13.687,13.687,0,0,1,18.944,47.168Z"/><path class="d" d="M 18.94444274902344 43.1683235168457 C 20.73538208007813 43.1683235168457 22.49887275695801 42.62930297851563 24.18593215942383 41.56623077392578 C 25.96629333496094 40.44439315795898 27.59234237670898 38.79795074462891 29.0189323425293 36.67264175415039 C 30.52420234680176 34.43015289306641 31.71295356750488 31.79433250427246 32.55218124389648 28.83840179443359 C 33.43915176391602 25.7143726348877 33.88888168334961 22.38580131530762 33.88888168334961 18.94513130187988 C 33.88888168334961 13.4947338104248 32.73979949951172 8.274702072143555 30.62460517883301 4.000001907348633 L 7.264274120330811 4.000001907348633 C 5.149087905883789 8.274703979492188 4.000002861022949 13.49474239349365 4.000002861022949 18.94513130187988 C 4.000002861022949 22.38580131530762 4.449732780456543 25.7143726348877 5.336702823638916 28.83842086791992 C 6.175912857055664 31.7943115234375 7.364672660827637 34.43012237548828 8.869953155517578 36.67266082763672 C 10.29654312133789 38.7979621887207 11.92260265350342 40.44440078735352 13.70297241210938 41.56625366210938 C 15.39001274108887 42.62930297851563 17.15350341796875 43.1683235168457 18.94444274902344 43.1683235168457 M 18.94444274902344 47.1683235168457 C 16.38699340820313 47.1683235168457 13.90604305267334 46.42211151123047 11.57050228118896 44.95041275024414 C 9.31461238861084 43.5289306640625 7.288622856140137 41.49394226074219 5.548782825469971 38.90196228027344 C 3.808942794799805 36.31000137329102 2.442952632904053 33.29170227050781 1.48878276348114 29.9308910369873 C 0.5008927583694458 26.45140266418457 2.749023451542598e-06 22.75525093078613 2.749023451542598e-06 18.94513130187988 C 2.749023451542598e-06 11.92517185211182 1.740872740745544 5.197001934051514 4.901952743530273 1.758422854436503e-06 L 32.98692321777344 1.758422854436503e-06 C 36.14824295043945 5.197381973266602 37.88888168334961 11.9254322052002 37.88888168334961 18.94513130187988 C 37.88888168334961 22.75525093078613 37.38799285888672 26.45140266418457 36.40010452270508 29.9308910369873 C 35.4459228515625 33.29170227050781 34.0799446105957 36.31000137329102 32.34010314941406 38.90196228027344 C 30.60026359558105 41.49394226074219 28.57426261901855 43.5289306640625 26.31838226318359 44.95041275024414 C 23.98284339904785 46.42211151123047 21.50188255310059 47.1683235168457 18.94444274902344 47.1683235168457 Z"/></g><line class="b" x2="34.023" transform="translate(187.512 1365.105)"/><line class="b" x2="24.744" transform="translate(192.152 1411.5)"/><line class="b" y2="19.331" transform="translate(204.524 1392.169)"/></g></svg>