<svg xmlns="http://www.w3.org/2000/svg" width="130" height="86" viewBox="0 0 130 86"><defs><style>.a,.b{fill:none;}.b{stroke:#00a651;stroke-width:4px;}.c,.d{stroke:none;}.d{fill:#00a651;}</style></defs><g transform="translate(-113.5 -1067.5)"><g class="a" transform="translate(106 1081)"><path class="c" d="M129.944,59H15.056c-.037-.836-.055-1.677-.055-2.5a55.3,55.3,0,0,1,4.519-21.992A56.268,56.268,0,0,1,31.842,16.549,57.375,57.375,0,0,1,50.119,4.44a58.63,58.63,0,0,1,44.763,0,57.375,57.375,0,0,1,18.277,12.109,56.268,56.268,0,0,1,12.323,17.959A55.3,55.3,0,0,1,130,56.5c0,.83-.019,1.671-.055,2.5Z"/><path class="d" d="M 125.9784469604492 55.00040054321289 C 125.7931747436523 48.44979858398438 124.3921890258789 42.09542846679688 121.8069152832031 36.08940124511719 C 119.1168670654297 29.8399829864502 115.2638244628906 24.22543716430664 110.3548278808594 19.4017448425293 C 105.4409332275391 14.5732364654541 99.71848297119141 10.78214550018311 93.34638977050781 8.133782386779785 C 86.74664306640625 5.390800476074219 79.73304748535156 4.000000476837158 72.50041198730469 4.000000476837158 C 65.26753234863281 4.000000476837158 58.25375366210938 5.39081859588623 51.65388107299805 8.133800506591797 C 45.28164672851563 10.78218173980713 39.55910110473633 14.57325458526611 34.64519119262695 19.4017448425293 C 29.73609924316406 24.22549057006836 25.8830451965332 29.84001922607422 23.19300842285156 36.08942031860352 C 20.60773849487305 42.09537887573242 19.20675277709961 48.44975662231445 19.02147674560547 55.00040054321289 L 125.9784469604492 55.00040054321289 M 129.9442443847656 59.00040054321289 L 15.05564498901367 59.00040054321289 C 15.01859092712402 58.1644172668457 15.00029945373535 57.32354736328125 15.00029945373535 56.50019836425781 C 15.00029945373535 48.87278366088867 16.52058982849121 41.47349166870117 19.51893615722656 34.50790786743164 C 22.41499137878418 27.77989196777344 26.56097221374512 21.73752784729004 31.8416633605957 16.54863739013672 C 37.12237167358398 11.35972785949707 43.27166366577148 7.285836696624756 50.11873626708984 4.440109252929688 C 57.20764541625977 1.493873000144958 64.73793792724609 2.716064386731887e-07 72.50041198730469 2.716064386731887e-07 C 80.26266479492188 2.716064386731887e-07 87.79277038574219 1.493873000144958 94.88155364990234 4.440109252929688 C 101.728515625 7.285836696624756 107.8777160644531 11.35974597930908 113.1583557128906 16.54863739013672 C 118.4390106201172 21.73752784729004 122.5849380493164 27.77989196777344 125.4809875488281 34.50790786743164 C 128.4793243408203 41.4735107421875 129.9996337890625 48.87278366088867 129.9996337890625 56.50019836425781 C 129.9996337890625 57.33047485351563 129.9810028076172 58.17134475708008 129.9443054199219 58.99943542480469 L 129.9442443847656 59.00040054321289 Z"/></g><line class="b" x2="130" transform="translate(113.5 1137.5)"/><line class="b" x2="130" transform="translate(113.5 1151.5)"/><line class="b" y1="15" transform="translate(178.5 1068.5)"/><line class="b" x2="18" transform="translate(169.5 1069.5)"/></g></svg>