<svg xmlns="http://www.w3.org/2000/svg" width="85.37" height="94.771" viewBox="0 0 85.37 94.771"><defs><style>.a{fill:none;stroke:#00a651;stroke-linecap:round;stroke-width:4px;}</style></defs><g transform="translate(-1143.82 -1320.057)"><path class="a" d="M1157.579,1332.452s-2.156,7.974,6.441,7.974h56.64s2.263.6,2.112-9.2-3.62-9.05-3.62-9.05H1156.4s-4.374.3-4.374,4.676v14.028l-6.034,71.95h81.151l-.83-37.408-5.656-35.673"/><path class="a" d="M1162.17,1340.1l.625-2.321s.134-12.049,0-12.317.848-3.615-3.793-3.392"/><path class="a" d="M1166.343,1412.828l-.392-30.394-4.8-40.1a11.5,11.5,0,0,0-2.745-4.51"/><path class="a" d="M1156.343,1412.828v-50.591"/><path class="a" d="M1178.3,1340.667s4.8,13.922,5.1,27.747"/><path class="a" d="M1178.3,1340.667s4.8,13.922,5.1,27.747" transform="translate(25)"/><line class="a" x2="25" transform="translate(1183.5 1368.5)"/></g></svg>