<svg xmlns="http://www.w3.org/2000/svg" width="58.791" height="123.094" viewBox="0 0 58.791 123.094"><defs><style>.a,.d,.i{fill:none;}.a,.b,.c,.d,.f{stroke:#00a651;}.a,.d,.e,.f{stroke-linecap:round;}.a{stroke-width:3px;}.b,.c,.e,.f,.g{fill:#fff;}.b,.d{stroke-width:4px;}.c,.f{stroke-width:2px;}.h,.j{stroke:none;}.j{fill:#00a651;}</style></defs><g transform="translate(-505 -1033.453)"><line class="a" y1="105" x2="4" transform="translate(531.5 1042.5)"/><line class="a" x1="3" y2="105" transform="translate(538.5 1042.5)"/><line class="a" x2="3" y2="7" transform="translate(531.5 1147.5)"/><line class="a" x1="4" y2="7" transform="translate(534.5 1147.5)"/><line class="a" y1="7" x2="4" transform="translate(535.5 1035.5)"/><line class="a" x1="2" y1="7" transform="translate(539.5 1035.5)"/><g class="b" transform="translate(514 1055)"><ellipse class="h" cx="23.5" cy="17.5" rx="23.5" ry="17.5"/><ellipse class="i" cx="23.5" cy="17.5" rx="21.5" ry="15.5"/></g><g class="c" transform="translate(550 1068)"><ellipse class="h" cx="3.5" cy="5" rx="3.5" ry="5"/><ellipse class="i" cx="3.5" cy="5" rx="2.5" ry="4"/></g><line class="d" x2="52" transform="translate(509.5 1129.5)"/><line class="d" y2="24" transform="translate(561.5 1105.5)"/><line class="d" x2="50" y2="8" transform="translate(511.5 1097.5)"/><line class="d" y1="32" x2="2" transform="translate(509.5 1097.5)"/><g class="e" transform="translate(501 1105)"><path class="h" d="M 10.00010108947754 14.90980339050293 L 10.00010108947754 2.090285301208496 C 12.83423137664795 2.607524871826172 15.0001106262207 5.284730434417725 15.0001106262207 8.499600410461426 C 15.0001106262207 11.714919090271 12.83423137664795 14.39249229431152 10.00010108947754 14.90980339050293 Z"/><path class="j" d="M 12.00010108947754 11.46573066711426 C 12.64758968353271 10.64300441741943 13.0001106262207 9.604442596435547 13.0001106262207 8.499600410461426 C 13.0001106262207 7.395042419433594 12.64751052856445 6.356583118438721 12.00010108947754 5.534043312072754 L 12.00010108947754 11.46573066711426 M 9.000000953674316 17.00010108947754 C 8.666030883789063 17.00010108947754 8.329610824584961 16.97796058654785 8.000101089477539 16.93428993225098 L 8.000101089477539 0.06578054279088974 C 8.332120895385742 0.02180054411292076 8.668231010437012 5.447387820822769e-07 9.000000953674316 5.447387820822769e-07 C 13.41127109527588 5.447387820822769e-07 17.0001106262207 3.812900543212891 17.0001106262207 8.499600410461426 C 17.0001106262207 13.18679046630859 13.41127109527588 17.00010108947754 9.000000953674316 17.00010108947754 Z"/></g><g class="f" transform="translate(540 1114)"><circle class="h" cx="5" cy="5" r="5"/><circle class="i" cx="5" cy="5" r="4"/></g><g class="e" transform="translate(522.744 1092.31)"><path class="h" d="M 8.756101608276367 12.68980407714844 C 6.274411678314209 12.68980407714844 4.255401611328125 10.67120361328125 4.255401611328125 8.190004348754883 C 4.255401611328125 8.005338668823242 4.266269207000732 7.822644233703613 4.287907600402832 7.642403125762939 L 13.17349433898926 9.049783706665039 C 12.77112293243408 11.12116432189941 10.94335556030273 12.68980407714844 8.756101608276367 12.68980407714844 Z"/><path class="j" d="M 8.756101608276367 10.68980407714844 C 9.076469421386719 10.68980407714844 9.382891654968262 10.62925052642822 9.664642333984375 10.51894664764404 L 7.173854827880859 10.12443256378174 C 7.60520076751709 10.4776725769043 8.156288146972656 10.68980407714844 8.756101608276367 10.68980407714844 M 8.756101608276367 14.68980407714844 C 5.171601295471191 14.68980407714844 2.255401372909546 11.77400398254395 2.255401372909546 8.190004348754883 C 2.255401372909546 7.211783885955811 2.467321395874023 6.271503925323486 2.885271549224854 5.395303726196289 L 15.20158100128174 7.346074104309082 C 15.23790168762207 7.626333713531494 15.25590133666992 7.909984111785889 15.25590133666992 8.190004348754883 C 15.25590133666992 11.77400398254395 12.34010124206543 14.68980407714844 8.756101608276367 14.68980407714844 Z"/></g><ellipse class="g" cx="5" cy="4.5" rx="5" ry="4.5" transform="translate(505 1109)"/></g></svg>