<svg xmlns="http://www.w3.org/2000/svg" width="135" height="85" viewBox="0 0 135 85"><defs><style>.a,.b,.e{fill:none;}.a{stroke:#00a651;stroke-width:4px;}.c{fill:#fff;}.d,.f{stroke:none;}.f{fill:#00a651;}</style></defs><g transform="translate(-1129 -1069)"><g class="a" transform="translate(1158 1072)"><circle class="d" cx="40.5" cy="40.5" r="40.5"/><circle class="e" cx="40.5" cy="40.5" r="38.5"/></g><g class="b" transform="translate(1170 1053)"><path class="d" d="M81,76.232V16.768a40.471,40.471,0,0,1,0,59.462Z"/><path class="f" d="M 85 64.95721435546875 C 85.67790222167969 63.80062484741211 86.29368591308594 62.60319900512695 86.84555816650391 61.36746978759766 C 88.93843841552734 56.68125915527344 89.99960327148438 51.67922592163086 89.99960327148438 46.50030517578125 C 89.99960327148438 41.32117080688477 88.93842315673828 36.31899261474609 86.84555816650391 31.63272666931152 C 86.29360961914063 30.39684104919434 85.67800903320313 29.19971656799316 85 28.04298973083496 L 85 64.95721435546875 M 81 76.23212432861328 L 81 76.22983551025391 L 81 16.76814842224121 C 85.0587158203125 20.52390480041504 88.25369262695313 24.97652626037598 90.49787902832031 30.0016040802002 C 92.82144927978516 35.20443725585938 93.99960327148438 40.75540542602539 93.99960327148438 46.50030517578125 C 93.99960327148438 52.24499130249023 92.82144927978516 57.79582595825195 90.49787902832031 62.99860382080078 C 88.25338745117188 68.02432250976563 85.05840301513672 72.47621154785156 81.00167846679688 76.23056030273438 L 81 76.23212432861328 Z"/></g><line class="a" y1="78" transform="translate(1253 1074)"/><g class="a" transform="translate(1129 1073)"><path class="d" d="M0,0H24a0,0,0,0,1,0,0V27A11,11,0,0,1,13,38H11A11,11,0,0,1,0,27V0A0,0,0,0,1,0,0Z"/><path class="e" d="M4,2H20a2,2,0,0,1,2,2V27a9,9,0,0,1-9,9H11a9,9,0,0,1-9-9V4A2,2,0,0,1,4,2Z"/></g><line class="a" y1="81" transform="translate(1141 1073)"/><rect class="c" width="6" height="9" transform="translate(1133 1069)"/><rect class="c" width="6" height="11" transform="translate(1143 1069)"/></g></svg>