<svg xmlns="http://www.w3.org/2000/svg" width="20" height="20" viewBox="0 0 20 20"><path d="M15.181,57.425a1.4,1.4,0,0,0-2.114,0c-.494.49-.989.98-1.475,1.479a.291.291,0,0,1-.407.075c-.32-.174-.66-.316-.968-.507a15.334,15.334,0,0,1-3.7-3.364A8.758,8.758,0,0,1,5.2,52.985a.3.3,0,0,1,.075-.39c.494-.478.976-.968,1.462-1.458a1.4,1.4,0,0,0,0-2.164c-.386-.39-.773-.773-1.159-1.163s-.793-.8-1.2-1.2a1.408,1.408,0,0,0-2.114,0c-.5.49-.976.993-1.483,1.474A2.407,2.407,0,0,0,.02,49.716a6.88,6.88,0,0,0,.532,2.961A18,18,0,0,0,3.746,58a19.766,19.766,0,0,0,6.546,5.121,9.468,9.468,0,0,0,3.626,1.055,2.657,2.657,0,0,0,2.28-.868c.424-.473.9-.905,1.35-1.358a1.413,1.413,0,0,0,.008-2.152Q16.373,58.607,15.181,57.425Z" transform="translate(-0.006 -44.181)"/><path d="M242.45,102.029l1.565-.267A7.023,7.023,0,0,0,238.074,96l-.22,1.573a5.428,5.428,0,0,1,4.6,4.456Z" transform="translate(-228.035 -92.036)"/><path d="M249.589,3.3A11.536,11.536,0,0,0,242.974,0l-.22,1.573a10.067,10.067,0,0,1,8.518,8.255l1.565-.267A11.621,11.621,0,0,0,249.589,3.3Z" transform="translate(-232.837)"/></svg>