<svg xmlns="http://www.w3.org/2000/svg" xmlns:xlink="http://www.w3.org/1999/xlink" width="15" height="15" viewBox="0 0 15 15"><defs><style>.a{fill:url(#a);}.b{fill:url(#b);}.c{fill:url(#c);}</style><linearGradient id="a" x1="0.5" y1="0.008" x2="0.5" y2="0.998" gradientUnits="objectBoundingBox"><stop offset="0" stop-color="#e09b3d"/><stop offset="0.3" stop-color="#c74c4d"/><stop offset="0.6" stop-color="#c21975"/><stop offset="1" stop-color="#7024c4"/></linearGradient><linearGradient id="b" y1="-0.451" y2="1.462" xlink:href="#a"/><linearGradient id="c" y1="-1.396" y2="6.586" xlink:href="#a"/></defs><path class="a" d="M10.531,0H4.469A4.474,4.474,0,0,0,0,4.469v6.063A4.474,4.474,0,0,0,4.469,15h6.063A4.474,4.474,0,0,0,15,10.531V4.469A4.474,4.474,0,0,0,10.531,0Zm2.96,10.531a2.96,2.96,0,0,1-2.96,2.96H4.469a2.96,2.96,0,0,1-2.96-2.96V4.469a2.96,2.96,0,0,1,2.96-2.96h6.063a2.96,2.96,0,0,1,2.96,2.96v6.063Z"/><path class="b" d="M136.948,133a3.948,3.948,0,1,0,3.948,3.948A3.953,3.953,0,0,0,136.948,133Zm0,6.361a2.413,2.413,0,1,1,2.413-2.413A2.413,2.413,0,0,1,136.948,139.361Z" transform="translate(-129.448 -129.448)"/><circle class="c" cx="0.912" cy="0.912" r="0.912" transform="translate(10.486 2.727)"/></svg>