<svg xmlns="http://www.w3.org/2000/svg" width="79.389" height="103.578" viewBox="0 0 79.389 103.578"><defs><style>.a,.b{fill:none;}.b{stroke:#00a651;stroke-linecap:round;stroke-linejoin:round;stroke-width:3px;}.c,.d{stroke:none;}.d{fill:#00a651;}</style></defs><g transform="translate(-803.047 -1051.422)"><g class="a" transform="translate(803.047 1095.052)"><path class="c" d="M14.389,59.948c-7.314,0-11.544-5.554-11.544-12.867L0,12.359C0,6.375,4.611,0,10.593,0L57.968.883c3.976,0,10.455,2.633,10.593,8.576,6.081.667,10.828,6.311,10.828,13.174,0,7.313-5.39,13.241-12.038,13.241a11.084,11.084,0,0,1-1.121-.057l-1.286,14.5a9.629,9.629,0,0,1-9.63,9.63Z"/><path class="d" d="M 55.31410217285156 55.94751358032227 C 58.41837310791016 55.94751358032227 60.94387435913086 53.4219970703125 60.94387435913086 50.31772613525391 L 60.94387435913086 50.14071273803711 L 60.95950317382813 49.96439743041992 L 62.24540328979492 35.4635124206543 L 62.60330200195313 31.42764091491699 L 66.63424682617188 31.83734130859375 C 66.87103271484375 31.86141204833984 67.11219024658203 31.87361145019531 67.35104370117188 31.87361145019531 C 71.78323364257813 31.87361145019531 75.38909149169922 27.72832679748535 75.38909149169922 22.63306999206543 C 75.38909149169922 20.25742721557617 74.60236358642578 17.99859809875488 73.17384338378906 16.27268409729004 C 71.83306121826172 14.65276908874512 70.03994750976563 13.64491176605225 68.12478637695313 13.43478298187256 L 64.6434326171875 13.05278301239014 L 64.56214904785156 9.551468849182129 C 64.55097198486328 9.069911956787109 64.51696014404297 7.60445499420166 62.50871658325195 6.285897731781006 C 61.03263092041016 5.3167405128479 59.16470336914063 4.882926464080811 57.9682731628418 4.882926464080811 L 57.93100357055664 4.882926464080811 L 57.89374542236328 4.882226467132568 L 10.56180572509766 4.000107765197754 C 8.454127311706543 4.015011310577393 6.899839401245117 5.543362617492676 6.159031391143799 6.456212043762207 C 4.839627742767334 8.082009315490723 4.03913402557373 10.22295475006104 4.001397132873535 12.2121114730835 L 6.831488609313965 46.75409698486328 L 6.844845771789551 46.91714096069336 L 6.844845771789551 47.08072662353516 C 6.844845771789551 49.76288223266602 7.579160213470459 52.09751129150391 8.912517547607422 53.65456771850586 C 10.21540260314941 55.17605590820313 12.05791759490967 55.94751358032227 14.38887405395508 55.94751358032227 L 55.31410217285156 55.94751358032227 M 55.31410217285156 59.94751358032227 L 14.38887405395508 59.94751358032227 C 7.075274467468262 59.94751358032227 2.844845771789551 54.39324188232422 2.844845771789551 47.08072662353516 L 2.888706831072341e-06 12.35869789123535 C 2.888706831072341e-06 6.37544059753418 4.61068868637085 -2.260044539070805e-06 10.59287452697754 -2.260044539070805e-06 L 57.9682731628418 0.8829262852668762 C 61.9447021484375 0.8829262852668762 68.42311859130859 3.51575493812561 68.56107330322266 9.458641052246094 C 74.64157104492188 10.12582588195801 79.38909149169922 15.76954078674316 79.38909149169922 22.63306999206543 C 79.38909149169922 29.94558334350586 73.99948883056641 35.87361145019531 67.35104370117188 35.87361145019531 C 66.97291564941406 35.87361145019531 66.59900665283203 35.8543701171875 66.22977447509766 35.81684112548828 L 64.94387054443359 50.31772613525391 C 64.94387054443359 55.63691329956055 60.63327407836914 59.94751358032227 55.31410217285156 59.94751358032227 Z"/></g><path class="b" d="M816.969,1073.2s8.416,5.228.638,15.429.765,12.624.765,12.624" transform="translate(2.3 -16.664)"/><path class="b" d="M816.969,1073.2s8.416,5.228.638,15.429.765,12.624.765,12.624" transform="translate(34.8 -20.275)"/><path class="b" d="M816.969,1073.2s8.416,5.228.638,15.429.765,12.624.765,12.624" transform="translate(19.152 -10.645)"/></g></svg>