<svg xmlns="http://www.w3.org/2000/svg" width="30" height="31.688" viewBox="0 0 30 31.688"><g transform="translate(16.8)"><path d="M25.75,20.865H43.538A3.636,3.636,0,0,0,47.2,17.27V9.845a.081.081,0,0,0-.007-.039c0-.013-.007-.033-.007-.046s-.007-.026-.007-.039a.408.408,0,0,1-.013-.046c-.007-.013-.007-.026-.013-.039s-.007-.026-.013-.039a.314.314,0,0,1-.02-.046.142.142,0,0,0-.02-.033l-.02-.039c-.007-.013-.013-.02-.02-.033s-.02-.026-.027-.039a.115.115,0,0,0-.027-.033c-.007-.013-.02-.02-.027-.033s-.02-.02-.027-.033-.02-.02-.027-.026L46.9,9.253c-.013-.007-.02-.02-.033-.026s-.027-.02-.04-.026-.02-.013-.033-.02a.139.139,0,0,1-.04-.026l-.04-.02-.04-.02-.04-.02c-.013-.007-.027-.007-.04-.013a.125.125,0,0,0-.046-.013.292.292,0,0,1-.033-.007.149.149,0,0,0-.053-.007c-.007,0-.013-.007-.027-.007L23.886,6V2.909a.393.393,0,0,0-.007-.091.048.048,0,0,0-.007-.026c0-.02-.007-.039-.007-.059s-.007-.033-.013-.052-.007-.02-.007-.033l-.02-.059c0-.007-.007-.02-.007-.026a.194.194,0,0,0-.027-.052c-.007-.007-.007-.02-.013-.026a.136.136,0,0,0-.027-.039c-.007-.013-.013-.02-.02-.033s-.013-.02-.02-.033-.02-.026-.027-.039l-.02-.02-.04-.039-.02-.02a.287.287,0,0,0-.046-.039c-.007-.007-.02-.013-.027-.02s-.027-.02-.04-.033a.614.614,0,0,0-.053-.033c-.007-.007-.013-.007-.02-.013-.027-.013-.06-.026-.086-.039L18.446.07a.9.9,0,0,0-1.174.469.872.872,0,0,0,.478,1.153l4.339,1.8V22.753a3.623,3.623,0,0,0,3.191,3.562,3.5,3.5,0,0,0-.518,1.824,3.617,3.617,0,0,0,7.232,0,3.434,3.434,0,0,0-.5-1.791H39.55a3.451,3.451,0,0,0-.5,1.791,3.617,3.617,0,1,0,3.616-3.549H25.75a1.856,1.856,0,0,1-1.871-1.837V20.37A3.757,3.757,0,0,0,25.75,20.865Zm4.459,7.268a1.825,1.825,0,1,1-1.825-1.791A1.811,1.811,0,0,1,30.209,28.133Zm14.291,0a1.825,1.825,0,1,1-1.825-1.791A1.811,1.811,0,0,1,44.5,28.133Zm-.962-9.026H25.75a1.856,1.856,0,0,1-1.871-1.837v-9.5l21.53,2.911v6.584A1.857,1.857,0,0,1,43.538,19.106Z" transform="translate(-34)"/></g></svg>